# xmcd CD database file
#
# Track frame offsets:
#	150
#	14148
#	28821
#	41019
#	57492
#	73365
#
# Disc length: 1167 seconds
#
# Revision: 0
# Processed by: cddbd v1.5.2PL0 Copyright (c) Steve Scherf et al.
# Submitted via: CDex 1.51
#
DISCID=5c048d06
DTITLE=Trailer Choir - Off The Hillbilly Hook
DYEAR=2009
DGENRE=Country
TTITLE0=Rockin' The Beer Gut
TTITLE1=Rollin' Through The Sunshine
TTITLE2=In My Next 5 Beers
TTITLE3=What Would You Say
TTITLE4=Last Man Standing
TTITLE5=Off The Hillbilly Hook
EXTD=YEAR: 2009
EXTT0=
EXTT1=
EXTT2=
EXTT3=
EXTT4=
EXTT5=
PLAYORDER=
